<?xml version="1.0" encoding="UTF-8" standalone="no"?>
<svg
   xmlns:dc="http://purl.org/dc/elements/1.1/"
   xmlns:cc="http://creativecommons.org/ns#"
   xmlns:rdf="http://www.w3.org/1999/02/22-rdf-syntax-ns#"
   xmlns:svg="http://www.w3.org/2000/svg"
   xmlns="http://www.w3.org/2000/svg"
   xmlns:sodipodi="http://sodipodi.sourceforge.net/DTD/sodipodi-0.dtd"
   xmlns:inkscape="http://www.inkscape.org/namespaces/inkscape"
   id="e4ebe004-ac85-4249-bdf7-a9685d9ba22f"
   data-name="Layer 1"
   width="820"
   height="725.17352"
   viewBox="0 0 820 725.17352"
   version="1.1"
   sodipodi:docname="undraw_voice_interface_eckp.svg"
   inkscape:version="0.92.4 (5da689c313, 2019-01-14)">
  <metadata
     id="metadata843">
    <rdf:RDF>
      <cc:Work
         rdf:about="">
        <dc:format>image/svg+xml</dc:format>
        <dc:type
           rdf:resource="http://purl.org/dc/dcmitype/StillImage" />
      </cc:Work>
    </rdf:RDF>
  </metadata>
  <defs
     id="defs841" />
  <sodipodi:namedview
     pagecolor="#ffffff"
     bordercolor="#666666"
     borderopacity="1"
     objecttolerance="10"
     gridtolerance="10"
     guidetolerance="10"
     inkscape:pageopacity="0"
     inkscape:pageshadow="2"
     inkscape:window-width="1920"
     inkscape:window-height="1001"
     id="namedview839"
     showgrid="false"
     inkscape:zoom="2.6035148"
     inkscape:cx="89.542232"
     inkscape:cy="303.38403"
     inkscape:window-x="-9"
     inkscape:window-y="-9"
     inkscape:window-maximized="1"
     inkscape:current-layer="e4ebe004-ac85-4249-bdf7-a9685d9ba22f" />
  <title
     id="title2">voice interface</title>
  <circle
     style="fill:#ecf0f1;fill-opacity:1;stroke-width:0.67150372"
     id="path4524"
     cx="150"
     cy="420.17352"
     r="120"
     inkscape:export-xdpi="300"
     inkscape:export-ydpi="300" />
  <g
     id="g851"
     transform="matrix(1.1228617,0,0,1.1228637,-48.14652,-235.77961)"
     inkscape:export-xdpi="300"
     inkscape:export-ydpi="300">
    <path
       id="path6"
       transform="translate(-190,-87.41324)"
       d="m 389.41627,685.21208 c -22.56492,34.60437 -16.38211,78.61668 -16.38211,78.61668 0,0 42.76778,-12.09246 65.3327,-46.69683 22.56492,-34.60437 16.38214,-78.61668 16.38214,-78.61668 0,0 -42.7678,12.09246 -65.33273,46.69683 z"
       inkscape:connector-curvature="0"
       style="fill:#3f3d56" />
    <path
       id="path8"
       transform="translate(-190,-87.41324)"
       d="m 372.91411,763.42633 c 0,0 -0.54932,-0.0876 -1.56033,-0.29219 -0.80645,-0.16361 -1.91676,-0.39738 -3.27253,-0.71878 -12.1201,-2.85764 -44.343,-12.51748 -65.41,-37.91479 -26.36737,-31.80212 -25.25706,-76.23279 -25.25706,-76.23279 0,0 40.31663,6.55095 66.88267,35.10975 q 1.72688,1.84079 3.3602,3.816 c 22.94289,27.67056 25.08172,64.90163 25.25121,74.10566 0.0233,1.37915 0.006,2.12714 0.006,2.12714 z"
       inkscape:connector-curvature="0"
       style="fill:#18bc9c" />
    <path
       id="path10"
       stroke-miterlimit="10"
       transform="translate(-190,-87.41324)"
       d="m 356.652,685.21208 c 22.56492,34.60437 16.38212,78.61668 16.38212,78.61668 0,0 -42.76779,-12.09246 -65.33271,-46.69683 -22.56492,-34.60437 -16.38212,-78.61668 -16.38212,-78.61668 0,0 42.76782,12.09246 65.33271,46.69683 z"
       inkscape:connector-curvature="0"
       style="fill:none;stroke:#3f3d56;stroke-width:2;stroke-miterlimit:10" />
    <path
       id="path12"
       transform="translate(-190,-87.41324)"
       d="m 372.90826,761.2992 c -0.59608,0.71878 -1.122,1.33238 -1.55448,1.83494 -0.95836,1.09279 -1.50187,1.66551 -1.50187,1.66551 0,0 -0.66032,-0.82985 -1.77066,-2.38429 -6.09511,-8.49692 -25.70116,-38.70954 -24.18763,-73.60892 q 0.12273,-2.74368 0.40323,-5.42891 1.72688,1.84079 3.3602,3.816 c 22.94289,27.67057 25.08172,64.90164 25.25121,74.10567 z"
       inkscape:connector-curvature="0"
       style="opacity:0.1" />
    <path
       id="path14"
       transform="translate(-190,-87.41324)"
       d="M 406.36616,691.33024 C 404.58258,732.6032 373.94478,764.8 373.94478,764.8 c 0,0 -27.746,-34.71986 -25.96245,-75.99282 1.78355,-41.27296 32.42139,-73.46979 32.42139,-73.46979 0,0 27.74603,34.71989 25.96244,75.99285 z"
       inkscape:connector-curvature="0"
       style="fill:#18bc9c" />
    <line
       id="line16"
       stroke-miterlimit="10"
       y2="529.6076"
       x2="190.68056"
       y1="676.21802"
       x1="183.94478"
       style="fill:none;stroke:#3f3d56;stroke-width:2;stroke-miterlimit:10" />
  </g>
</svg>
