<?xml version="1.0" encoding="UTF-8" standalone="no"?>
<svg
   xmlns:dc="http://purl.org/dc/elements/1.1/"
   xmlns:cc="http://creativecommons.org/ns#"
   xmlns:rdf="http://www.w3.org/1999/02/22-rdf-syntax-ns#"
   xmlns:svg="http://www.w3.org/2000/svg"
   xmlns="http://www.w3.org/2000/svg"
   xmlns:sodipodi="http://sodipodi.sourceforge.net/DTD/sodipodi-0.dtd"
   xmlns:inkscape="http://www.inkscape.org/namespaces/inkscape"
   id="a64b19f6-1f12-4f18-b71c-01acbbb1e99d"
   data-name="Layer 1"
   width="1126.18239"
   height="694.22222"
   viewBox="0 0 1126.18239 694.22222"
   version="1.1"
   sodipodi:docname="undraw_back_home_nl5c.svg"
   inkscape:version="0.92.4 (5da689c313, 2019-01-14)">
  <metadata
     id="metadata223">
    <rdf:RDF>
      <cc:Work
         rdf:about="">
        <dc:format>image/svg+xml</dc:format>
        <dc:type
           rdf:resource="http://purl.org/dc/dcmitype/StillImage" />
      </cc:Work>
    </rdf:RDF>
  </metadata>
  <defs
     id="defs221">
    <clipPath
       clipPathUnits="userSpaceOnUse"
       id="clipPath273">
      <g
         inkscape:label="Clip"
         id="use275">
        <path
           transform="translate(-36.9088,-102.88889)"
           id="path4552"
           d="m 289.05074,582.775 c -17.40643,64.34464 -77.02739,104.19489 -77.02739,104.19489 0,0 -31.39956,-64.473 -13.99312,-128.81765 17.40644,-64.34465 77.02739,-104.19488 77.02739,-104.19488 0,0 31.39956,64.47299 13.99312,128.81764 z"
           inkscape:connector-curvature="0"
           style="fill:#3f3d56" />
        <path
           transform="translate(-36.9088,-102.88889)"
           id="path4554"
           d="m 130.70076,582.775 c 17.40643,64.34464 77.02739,104.19489 77.02739,104.19489 0,0 31.39956,-64.473 13.99313,-128.81765 -17.40643,-64.34465 -77.0274,-104.19488 -77.0274,-104.19488 0,0 -31.39955,64.47299 -13.99312,128.81764 z"
           inkscape:connector-curvature="0"
           style="fill:#18bc9c" />
        <path
           id="path4556"
           transform="translate(-36.9088,-102.88889)"
           d="m 156.27828,568.94663 c 47.76351,46.49584 53.59747,117.97078 53.59747,117.97078 0,0 -71.606,-3.90972 -119.36948,-50.40557 C 42.74279,590.01599 36.9088,518.54106 36.9088,518.54106 c 0,0 71.60598,3.90973 119.36948,50.40557 z"
           inkscape:connector-curvature="0"
           style="fill:#3f3d56" />
        <path
           transform="translate(-36.9088,-102.88889)"
           id="path4558"
           d="m 263.47322,568.94663 c -47.7635,46.49584 -53.59747,117.97078 -53.59747,117.97078 0,0 71.606,-3.90972 119.36948,-50.40557 47.76348,-46.49585 53.59747,-117.97078 53.59747,-117.97078 0,0 -71.60598,3.90973 -119.36948,50.40557 z"
           inkscape:connector-curvature="0"
           style="fill:#3f3d56" />
        <circle
           id="circle4560"
           r="22"
           cy="351"
           cx="172.93388"
           style="fill:#18bc9c" />
      </g>
    </clipPath>
  </defs>
  <sodipodi:namedview
     pagecolor="#ffffff"
     bordercolor="#666666"
     borderopacity="1"
     objecttolerance="10"
     gridtolerance="10"
     guidetolerance="10"
     inkscape:pageopacity="0"
     inkscape:pageshadow="2"
     inkscape:window-width="1920"
     inkscape:window-height="1001"
     id="namedview219"
     showgrid="false"
     inkscape:zoom="1.9230407"
     inkscape:cx="-23.791107"
     inkscape:cy="237.07416"
     inkscape:window-x="-9"
     inkscape:window-y="-9"
     inkscape:window-maximized="1"
     inkscape:current-layer="a64b19f6-1f12-4f18-b71c-01acbbb1e99d" />
  <title
     id="title2">back_home</title>
  <circle
     style="fill:#ecf0f1;fill-opacity:1;stroke-width:1.09119356"
     id="path4524"
     cx="200"
     cy="444.22223"
     r="195"
     inkscape:export-xdpi="96"
     inkscape:export-ydpi="96" />
  <ellipse
     style="fill:#3f3d56;fill-opacity:1"
     id="path4569"
     cx="199.93822"
     cy="611.37427"
     rx="5.3316855"
     ry="7.7447329"
     inkscape:export-xdpi="96"
     inkscape:export-ydpi="96" />
  <path
     id="path140"
     d="m 280.10572,512.80263 c -17.61105,65.10095 -77.93285,105.4196 -77.93285,105.4196 0,0 -31.76866,-65.23082 -14.15761,-130.33177 17.61105,-65.10096 77.93284,-105.41959 77.93284,-105.41959 0,0 31.76867,65.23081 14.15762,130.33176 z"
     inkscape:connector-curvature="0"
     style="fill:#3f3d56;stroke-width:1.01175404"
     inkscape:export-xdpi="96"
     inkscape:export-ydpi="96" />
  <path
     id="path142"
     d="m 119.89439,512.80263 c 17.61103,65.10095 77.93277,105.4196 77.93277,105.4196 0,0 31.76863,-65.23082 14.15761,-130.33177 -17.61103,-65.10096 -77.93278,-105.41959 -77.93278,-105.41959 0,0 -31.76862,65.23081 -14.1576,130.33176 z"
     inkscape:connector-curvature="0"
     style="fill:#18bc9c;stroke-width:1.01175404"
     inkscape:export-xdpi="96"
     inkscape:export-ydpi="96" />
  <path
     id="path144"
     d="M 145.77255,499.81172 C 194.09747,546.85408 200,619.16913 200,619.16913 c 0,0 -72.44765,-3.95567 -120.772545,-50.99803 C 30.902563,521.12873 25,448.81369 25,448.81369 c 0,0 72.447637,3.95568 120.77255,50.99803 z"
     inkscape:connector-curvature="0"
     style="fill:#3f3d56;stroke-width:1.01175404"
     inkscape:export-xdpi="96"
     inkscape:export-ydpi="96" />
  <path
     id="path146"
     d="M 254.22746,499.81172 C 205.90255,546.85408 200,619.16913 200,619.16913 c 0,0 72.44766,-3.95567 120.77255,-50.99803 48.32489,-47.04237 54.22746,-119.35741 54.22746,-119.35741 0,0 -72.44764,3.95568 -120.77255,50.99803 z"
     inkscape:connector-curvature="0"
     style="fill:#3f3d56;stroke-width:1.01175404"
     inkscape:export-xdpi="96"
     inkscape:export-ydpi="96" />
  <circle
     id="circle148"
     r="22.258589"
     cy="383.40158"
     cx="199.96655"
     style="fill:#18bc9c;stroke-width:1.01175404"
     inkscape:export-xdpi="96"
     inkscape:export-ydpi="96" />
</svg>
